<?xml version="1.0" encoding="utf-8"?>
<!-- Generator: Adobe Illustrator 17.0.0, SVG Export Plug-In . SVG Version: 6.00 Build 0)  -->
<!DOCTYPE svg PUBLIC "-//W3C//DTD SVG 1.1//EN" "http://www.w3.org/Graphics/SVG/1.1/DTD/svg11.dtd">
<svg version="1.1" id="Layer_1" xmlns="http://www.w3.org/2000/svg" xmlns:xlink="http://www.w3.org/1999/xlink" x="0px" y="0px"
	 width="96px" height="96px" viewBox="0 0 96 96" enable-background="new 0 0 96 96" xml:space="preserve">
<g>
	<path fill="#FFFFFF" d="M42.941,69.176v-2.824c0-9.764,2.824-15.293,12.824-24.823c5.177-5.059,6.706-7.765,6.706-12.118
		c0-7.176-5.882-12.353-14-12.353c-10.118,0-15.294,6.235-15.53,18.588h-10C23.411,17.882,32.706,8,48.941,8
		c14.353,0,24.118,8.706,24.118,21.411c0,4.706-1.294,8.706-4.235,12.235c-1.647,2.117-2,2.471-10,10.001
		C53.647,56.47,52.353,60,52.471,69.176H42.941z M53.647,88H41.53V76.236h12.117V88z"/>
</g>
</svg>
