<?xml version="1.0" encoding="UTF-8" standalone="no"?>
<svg xmlns:dc="http://purl.org/dc/elements/1.1/"
     xmlns:cc="http://creativecommons.org/ns#"
     xmlns:rdf="http://www.w3.org/1999/02/22-rdf-syntax-ns#"
     xmlns:svg="http://www.w3.org/2000/svg"
     xmlns="http://www.w3.org/2000/svg"
     xmlns:xlink="http://www.w3.org/1999/xlink"
     width="128" height="128" version="1.1">
    <title>Clairy Shutdown incon</title>
    <desc>This icon is taken from Clarity Icon (they are licenced with GPL but I as an author release this one using CC 0 licence)</desc>
    <metadata>
      <rdf:RDF xmlns:cc="http://web.resource.org/cc/" xmlns:dc="http://purl.org/dc/elements/1.1/" xmlns:rdf="http://www.w3.org/1999/02/22-rdf-syntax-ns#">
        <cc:Work rdf:about="">
          <dc:title>Clairy Shutdown incon</dc:title>
          <dc:description>This icon is taken from Clarity Icon (they are licenced with GPL but I as an author release this one using CC 0 licence)</dc:description>
          <dc:subject>
            <rdf:Bag>
              <rdf:li>Clarity</rdf:li>
              <rdf:li>Icon</rdf:li>
              <rdf:li>white</rdf:li>
              <rdf:li>monoshape</rdf:li>
              <rdf:li>power off</rdf:li>
              <rdf:li>turn off</rdf:li>
              <rdf:li>shutdown</rdf:li>
            </rdf:Bag>
          </dc:subject>
          <dc:publisher>
            <cc:Agent rdf:about="http://www.openclipart.org">
              <dc:title>Open Clip Art Library</dc:title>
            </cc:Agent>
          </dc:publisher>
          <dc:creator>
            <cc:Agent>
              <dc:title>Jakub Jankiewicz</dc:title>
            </cc:Agent>
          </dc:creator>
          <dc:rights>
            <cc:Agent>
              <dc:title>Jakub Jankiewicz</dc:title>
            </cc:Agent>
          </dc:rights>
          <dc:date></dc:date>
          <dc:format>image/svg+xml</dc:format>
          <dc:type rdf:resource="http://purl.org/dc/dcmitype/StillImage"/>
          <cc:license rdf:resource="http://web.resource.org/cc/PublicDomain"/>
          <dc:language>pl</dc:language>
        </cc:Work>
        <cc:License rdf:about="http://web.resource.org/cc/PublicDomain">
          <cc:permits rdf:resource="http://web.resource.org/cc/Reproduction"/>
          <cc:permits rdf:resource="http://web.resource.org/cc/Distribution"/>
          <cc:permits rdf:resource="http://web.resource.org/cc/DerivativeWorks"/>
        </cc:License>
      </rdf:RDF>
    </metadata>
    <path d="m 60.6875,9.71875 c -3.077848,0 -5.5625,2.484652 -5.5625,5.5625 l 0,39.90625 c 0,3.077848 2.484652,5.5625 5.5625,5.5625 l 5.96875,0 c 3.077848,0 5.53125,-2.484652 5.53125,-5.5625 l 0,-39.90625 c 0,-3.077848 -2.453402,-5.5625 -5.53125,-5.5625 l -5.96875,0 z m 16.1875,17.09375 0,16.4375 c 10.78771,4.907818 18.28125,15.780628 18.28125,28.40625 0,17.220933 -13.9353,31.15625 -31.15625,31.15625 -17.22093,0 -31.21875,-13.935317 -31.21875,-31.15625 0,-12.251424 7.09215,-22.835195 17.375,-27.9375 l 0,-16.65625 c -19.0217,5.891417 -32.8125,23.638062 -32.8125,44.59375 0,25.766671 20.88959,46.625 46.65625,46.625 25.76667,0 46.65625,-20.858329 46.65625,-46.625 0,-21.298684 -14.2775,-39.252235 -33.78125,-44.84375" fill="#ffffff" />
</svg>